<?xml version="1.0" encoding="utf-8"?>
<!-- Generator: Adobe Illustrator 24.2.3, SVG Export Plug-In . SVG Version: 6.00 Build 0)  -->
<svg version="1.1" id="Capa_1" xmlns="http://www.w3.org/2000/svg" xmlns:xlink="http://www.w3.org/1999/xlink" x="0px" y="0px"
	 viewBox="0 0 118.3 86.3" style="enable-background:new 0 0 118.3 86.3;" xml:space="preserve">
<style type="text/css">
	.st0{fill:#001943;}
	.st1{fill:#A19FA0;}
	.st2{fill:#CB2D30;}
	.st3{fill:#002856;}
</style>
<g id="Capa_2_1_">
	<g id="Capa_1-2">
		<path class="st0" d="M2.8,83.9h2c0,0.6-0.2,1.1-0.5,1.6c-0.4,0.5-1.1,0.8-1.8,0.8c-1.3,0-2.5-1.1-2.5-2.4v-0.1
			c0-1.4,1.1-2.5,2.5-2.5c0,0,0,0,0.1,0c0.6,0,1.1,0.2,1.5,0.5c0.2,0.2,0.4,0.4,0.6,0.6l-0.2,0.2c-0.1-0.2-0.3-0.4-0.5-0.5
			c-0.4-0.3-0.9-0.5-1.4-0.5c-1.2,0-2.2,1-2.2,2.2c0,0,0,0,0,0.1C0.3,85,1.3,86,2.4,86c0,0,0,0,0.1,0c0.7,0,1.3-0.3,1.7-0.8
			c0.2-0.3,0.3-0.6,0.3-1H2.8V83.9z"/>
		<path class="st0" d="M10.4,81.7h-2v1.8h2v0.3h-2V86h2v0.3H8.1v-4.9h2.3C10.4,81.4,10.4,81.7,10.4,81.7z"/>
		<path class="st0" d="M13.6,86.2v-4.9l4.1,4.3v-4.2H18v5l-4-4.3v4.1H13.6z"/>
		<path class="st0" d="M23.9,81.7h-2v1.8h2v0.3h-2V86h2v0.3h-2.3v-4.9h2.3V81.7z"/>
		<path class="st0" d="M29.2,86.2l-1.6-2.3h-0.1v2.3h-0.3v-4.8h0.7c0.4,0,0.7,0.1,1,0.2c0.3,0.2,0.5,0.6,0.5,1c0,0.5-0.3,1-0.8,1.2
			c-0.2,0.1-0.4,0.1-0.6,0.1l1.6,2.3L29.2,86.2z M27.5,83.6H28c0.5,0.1,1-0.3,1.1-0.9v-0.1c0-0.3-0.1-0.7-0.4-0.8
			c-0.2-0.1-0.5-0.2-0.7-0.2h-0.4v2H27.5z"/>
		<path class="st0" d="M35,84.6h-2l-0.7,1.6H32l2-5l2,5h-0.3L35,84.6z M34.9,84.3L34,82l-0.9,2.3H34.9z"/>
		<path class="st0" d="M39,86.2v-4.9l4.1,4.3v-4.2h0.3v5l-4.1-4.3v4.1H39z"/>
		<path class="st0" d="M46.9,86.2v-4.8h1c0.7,0,1.3,0.2,1.8,0.7c0.9,1,0.9,2.5,0,3.5c-0.5,0.5-1.1,0.7-1.8,0.7L46.9,86.2L46.9,86.2z
			 M47.2,85.9h0.6c1.2,0.1,2.2-0.8,2.3-2s-0.8-2.2-2-2.3c-0.1,0-0.2,0-0.3,0h-0.6V85.9z"/>
		<path class="st0" d="M58.3,83.8c0,1.4-1.1,2.5-2.5,2.5s-2.5-1.1-2.5-2.5s1.1-2.5,2.5-2.5l0,0C57.2,81.3,58.3,82.4,58.3,83.8
			C58.4,83.7,58.4,83.8,58.3,83.8z M58,83.8c0-1.2-1-2.2-2.2-2.1c-1.2,0-2.2,1-2.1,2.2c0,1.2,1,2.1,2.2,2.2C57,86,58,85.1,58,83.8
			L58,83.8L58,83.8z"/>
		<path class="st0" d="M65.8,83.9v2.3h-0.3v-4.8h0.9c0.7-0.1,1.3,0.4,1.4,1.1s-0.4,1.3-1.1,1.4c-0.1,0-0.2,0-0.3,0H65.8z M65.8,83.6
			h0.6c0.6,0,1-0.4,1.1-0.9c0,0,0,0,0-0.1c0-0.6-0.4-1-1.1-1h-0.6V83.6z"/>
		<path class="st0" d="M73,86.2l-1.6-2.3h-0.2v2.3H71v-4.8h0.7c0.4,0,0.7,0.1,1,0.2c0.3,0.2,0.5,0.6,0.5,1c0,0.5-0.3,1-0.8,1.2
			c-0.2,0.1-0.4,0.1-0.6,0.1l1.6,2.3L73,86.2z M71.3,83.6h0.5c0.5,0.1,1-0.3,1.1-0.9v-0.1c0-0.3-0.1-0.7-0.4-0.8
			c-0.2-0.1-0.5-0.2-0.7-0.2h-0.4L71.3,83.6L71.3,83.6z"/>
		<path class="st0" d="M81.2,83.8c0,1.4-1.1,2.5-2.5,2.5s-2.5-1.1-2.5-2.5s1.1-2.5,2.5-2.5l0,0C80.1,81.3,81.2,82.4,81.2,83.8
			C81.2,83.7,81.2,83.8,81.2,83.8z M80.9,83.8c0-1.2-1-2.2-2.2-2.1c-1.2,0-2.2,1-2.1,2.2c0,1.2,1,2.1,2.2,2.2
			C79.9,86,80.9,85.1,80.9,83.8C80.9,83.9,80.9,83.8,80.9,83.8z"/>
		<path class="st0" d="M87,83.9h2c0,0.6-0.2,1.1-0.5,1.6c-0.4,0.5-1.1,0.8-1.8,0.8c-1.3,0-2.5-1-2.5-2.4v-0.1c0-1.4,1.1-2.5,2.4-2.5
			h0.1c0.6,0,1.1,0.2,1.5,0.5c0.2,0.2,0.4,0.4,0.6,0.6l-0.3,0.2c-0.1-0.2-0.3-0.4-0.5-0.5c-0.4-0.3-0.9-0.5-1.4-0.5
			c-1.2,0-2.2,1-2.2,2.1c0,0,0,0,0,0.1c0,1.2,0.9,2.2,2.1,2.2h0.1c0.7,0,1.3-0.3,1.7-0.8c0.2-0.3,0.3-0.6,0.3-1H87V83.9z"/>
		<path class="st0" d="M94.3,86.2l-1.6-2.3h-0.2v2.3h-0.3v-4.8H93c0.4,0,0.7,0.1,1,0.2c0.3,0.2,0.5,0.6,0.5,1c0,0.5-0.3,1-0.8,1.2
			c-0.2,0.1-0.4,0.1-0.6,0.1l1.6,2.3L94.3,86.2z M92.6,83.6h0.5c0.5,0.1,1-0.3,1.1-0.9v-0.1c0-0.3-0.1-0.7-0.4-0.8
			c-0.2-0.1-0.5-0.2-0.7-0.2h-0.4L92.6,83.6L92.6,83.6z"/>
		<path class="st0" d="M100.2,81.7h-2v1.8h2v0.3h-2V86h2v0.3h-2.3v-4.9h2.3V81.7z"/>
		<path class="st0" d="M105.7,82.2c-0.2-0.4-0.6-0.6-1-0.6c-0.5,0-0.9,0.3-0.9,0.8v0.1c0,0.5,0.4,0.7,0.8,0.9c0.3,0.1,0.7,0.3,1,0.5
			s0.5,0.6,0.5,0.9c0,0.8-0.7,1.4-1.5,1.4l0,0c-0.4,0-0.8-0.2-1.1-0.5c-0.1-0.2-0.2-0.3-0.3-0.5l0.3-0.1c0.1,0.2,0.1,0.3,0.3,0.5
			c0.2,0.3,0.6,0.4,0.9,0.4c0.6,0,1.1-0.5,1.2-1.1c0,0,0,0,0-0.1c0-0.3-0.2-0.6-0.5-0.8l-0.8-0.4c-0.4-0.1-0.7-0.3-0.9-0.6
			c-0.1-0.2-0.2-0.4-0.2-0.6c0-0.7,0.5-1.2,1.1-1.2h0.1c0.5,0,1,0.3,1.2,0.7L105.7,82.2z"/>
		<path class="st0" d="M114.1,83.8c0,1.4-1.1,2.5-2.5,2.5s-2.5-1.1-2.5-2.5s1.1-2.5,2.5-2.5l0,0C113,81.3,114.1,82.4,114.1,83.8
			L114.1,83.8z M113.8,83.8c0-1.2-1-2.2-2.2-2.1c-1.2,0-2.2,1-2.1,2.2c0,1.2,1,2.1,2.2,2.2C112.8,86,113.8,85.1,113.8,83.8
			C113.8,83.9,113.8,83.8,113.8,83.8z"/>
		<path class="st1" d="M88.1,48.1c-0.6,0.1-1.1,0-1.6-0.3L71.6,40c-0.4-0.2-0.9-0.3-1.4-0.3s-0.9,0.1-1.3,0.3l-2.7,1.5
			c-0.4,0.2-0.7,0.3-1.2,0.3s-1-0.2-1.4-0.5l-8.2-6c-0.5-0.3-1.1-0.5-1.7-0.5l0,0c-0.6,0-1.2,0.2-1.7,0.6l-5.6,4.2
			c-0.3,0.3-0.7,0.4-1.2,0.5c-0.4,0-0.8,0-1.2-0.2l-2.5-1c-0.5-0.2-1-0.3-1.5-0.2s-1,0.3-1.3,0.6L32,44.4c-0.3,0.2-0.6,0.4-1,0.5
			s-0.9,0-1.3-0.1L21.3,42c-0.3-0.1-0.7-0.2-1-0.2c-0.4,0-0.7,0.1-1,0.2L0,50.6v-1.2L18.8,41c0.5-0.2,1-0.3,1.5-0.3s1,0.1,1.5,0.2
			l8.4,2.8c0.2,0.1,0.5,0.1,0.7,0.1s0.4-0.1,0.5-0.2l6.8-5.2c0.6-0.4,1.2-0.7,1.9-0.8s1.4,0,2.1,0.3l2.5,1C44.9,39,45,39,45.2,39
			h0.1c0.2,0,0.4-0.1,0.6-0.2l5.5-4.2c0.7-0.5,1.5-0.8,2.4-0.8c0.8,0,1.6,0.3,2.3,0.8l8.2,6c0.2,0.2,0.5,0.3,0.8,0.3
			c0.2,0,0.4-0.1,0.6-0.2l2.7-1.5c0.6-0.3,1.2-0.4,1.9-0.5c0.7,0,1.3,0.2,1.9,0.5L87,46.9c0.2,0.1,0.5,0.2,0.7,0.1
			c0.1,0.2,0.2,0.5,0.2,0.7L88.1,48.1z"/>
		<path class="st0" d="M95.3,45.9L88.1,48L88,47.6c-0.1-0.2-0.2-0.5-0.2-0.7c-0.3-0.9-0.7-1.8-1-2.7C75.8,17.1,45,4.1,17.9,15
			c-6.6,2.7-12.6,6.6-17.6,11.6l0,0H0.2c-0.1,0-0.1,0-0.2-0.1l0,0v-0.1l0,0C20.2,3.3,55.4,0.8,78.7,21
			C86.4,27.7,92.1,36.3,95.3,45.9L95.3,45.9z"/>
		<path class="st2" d="M114.1,52v0.6l-12.6-8.5l-5.3,1.6c-9.8-30-42.1-46.4-72.1-36.5c-7.7,2.5-14.8,6.7-20.8,12.2H3.2
			c-0.1,0-0.2-0.1-0.2-0.2l0,0v-0.1C27-5.3,67.9-7.2,94.3,16.8c7.4,6.7,13.1,15.1,16.7,24.4C112.4,44.7,113.4,48.3,114.1,52z"/>
		<path class="st0" d="M14.6,73v2.1c-3.6,0.1-7.2-0.7-10.3-2.5C1.5,71,0,69,0,66.6s1.4-4.3,4.3-6c3.2-1.7,6.7-2.6,10.3-2.5v2.1
			c-2.6-0.1-5.1,0.6-7.4,1.9c-2,1.2-3,2.7-3,4.5s1,3.3,3,4.5C9.5,72.4,12,73.1,14.6,73z"/>
		<path class="st0" d="M40.5,73v2.1c-3.6,0.1-7.2-0.8-10.3-2.5C27.4,71,26,69,26,66.6s1.4-4.3,4.3-6c3.2-1.7,6.7-2.6,10.3-2.5v2.1
			c-2.6-0.1-5.1,0.6-7.4,1.9c-2,1.2-3,2.7-3,4.5s1,3.3,3,4.5C35.4,72.4,38,73.1,40.5,73z"/>
		<path class="st0" d="M51.9,58.2H56v17h-4.1V58.2z"/>
		<path class="st0" d="M77.8,62.4l6.2-4.2h4.2v17H84V61.3l-6.2,4.2l-6.2-4.2v13.8h-4.1v-17h4.2L77.8,62.4z"/>
		<path class="st0" d="M112,61.3v7.4h2.1v2.1H112V75h-4.2v-4.2h-4.2V75h-4.2v-4.2h-2.1v-2.1h2.1v-7.4c0-0.9,0.6-1.6,1.8-2.2
			c2.8-1.2,6-1.2,8.8,0C111.4,59.7,112,60.5,112,61.3z M103.7,61.3v7.4h4.2v-7.4c0-0.3-0.2-0.5-0.6-0.8c-0.9-0.4-2-0.4-2.9,0
			C103.9,60.8,103.7,61,103.7,61.3L103.7,61.3z"/>
		<path class="st3" d="M116,71.4c0.3,0,0.5,0.1,0.7,0.2c0.2,0.2,0.3,0.4,0.3,0.6c0,0.3-0.1,0.5-0.3,0.7c-0.1,0.1-0.2,0.1-0.3,0.1
			l0.9,1.2h-0.7l-0.8-1.2h-0.1v1.2h-0.6v-2.9h0.9V71.4z M115.7,72.7h0.2c0.1,0,0.6,0,0.6-0.4s-0.4-0.4-0.5-0.4h-0.2L115.7,72.7z"/>
		<path class="st3" d="M116.1,75.1c-1.2,0-2.3-1-2.3-2.3c0-1.2,1-2.3,2.3-2.3c1.2,0,2.3,1,2.3,2.3S117.3,75.1,116.1,75.1L116.1,75.1
			z M116.1,71c-1,0-1.9,0.9-1.9,1.9s0.9,1.9,1.9,1.9s1.9-0.9,1.9-1.9C117.9,71.8,117.1,71,116.1,71L116.1,71z"/>
	</g>
</g>
</svg>
