<svg xmlns="http://www.w3.org/2000/svg" viewBox="0 0 114.1 75.22"><defs><style>.cls-1{fill:#fff;}</style></defs><g id="Capa_2" data-name="Capa 2"><g id="Capa_1-2" data-name="Capa 1"><g id="Capa_2-2" data-name="Capa 2"><g id="Capa_1-2-2" data-name="Capa 1-2"><path class="cls-1" d="M88.1,48.12a2.22,2.22,0,0,1-1.6-.3L71.6,40a3.19,3.19,0,0,0-1.4-.3,2.77,2.77,0,0,0-1.3.3l-2.7,1.5a2.35,2.35,0,0,1-2.6-.2l-8.2-6a3.37,3.37,0,0,0-1.7-.5h0a2.72,2.72,0,0,0-1.7.6l-5.6,4.2a2.2,2.2,0,0,1-1.2.5,2.54,2.54,0,0,1-1.2-.2l-2.5-1a2.64,2.64,0,0,0-2.8.4L32,44.42a3.13,3.13,0,0,1-1,.5,2.88,2.88,0,0,1-1.3-.1L21.3,42a3.55,3.55,0,0,0-1-.2,3,3,0,0,0-1,.2L0,50.62v-1.2L18.8,41a4,4,0,0,1,1.5-.3,7.72,7.72,0,0,1,1.5.2l8.4,2.8a1.7,1.7,0,0,0,.7.1.76.76,0,0,0,.5-.2l6.8-5.2a4.55,4.55,0,0,1,1.9-.8,3.86,3.86,0,0,1,2.1.3l2.5,1a.9.9,0,0,0,.5.1h.1a1.42,1.42,0,0,0,.6-.2l5.5-4.2a4.07,4.07,0,0,1,2.4-.8,4,4,0,0,1,2.3.8l8.2,6a1.14,1.14,0,0,0,.8.3,1.42,1.42,0,0,0,.6-.2l2.7-1.5a5.92,5.92,0,0,1,1.9-.5,4.14,4.14,0,0,1,1.9.5L87,46.92a.88.88,0,0,0,.7.1,1.85,1.85,0,0,1,.2.7Z"/><path class="cls-1" d="M95.3,45.92,88.1,48l-.1-.4a1.85,1.85,0,0,1-.2-.7c-.3-.9-.7-1.8-1-2.7A53,53,0,0,0,.3,26.62H.2c-.1,0-.1,0-.2-.1H0v-.1H0A55.92,55.92,0,0,1,78.7,21a56.77,56.77,0,0,1,16.6,24.9Z"/><path class="cls-1" d="M114.1,52v.6l-12.6-8.5-5.3,1.6A57.09,57.09,0,0,0,3.3,21.42H3.2a.22.22,0,0,1-.2-.2H3v-.1a64.55,64.55,0,0,1,108,20.1A57.94,57.94,0,0,1,114.1,52Z"/><path class="cls-1" d="M14.6,73v2.1a19.43,19.43,0,0,1-10.3-2.5C1.5,71,0,69,0,66.62s1.4-4.3,4.3-6a20.66,20.66,0,0,1,10.3-2.5v2.1a13.87,13.87,0,0,0-7.4,1.9q-3,1.8-3,4.5t3,4.5A13.87,13.87,0,0,0,14.6,73Z"/><path class="cls-1" d="M40.5,73v2.1a20.41,20.41,0,0,1-10.3-2.5q-4.2-2.4-4.2-6c0-2.4,1.4-4.3,4.3-6a20.66,20.66,0,0,1,10.3-2.5v2.1a13.87,13.87,0,0,0-7.4,1.9q-3,1.8-3,4.5t3,4.5A13.53,13.53,0,0,0,40.5,73Z"/><path class="cls-1" d="M51.9,58.22H56v17H51.9Z"/><path class="cls-1" d="M77.8,62.42l6.2-4.2h4.2v17H84V61.32l-6.2,4.2-6.2-4.2v13.8H67.5v-17h4.2Z"/><path class="cls-1" d="M112,61.32v7.4h2.1v2.1H112V75h-4.2v-4.2h-4.2V75H99.4v-4.2H97.3v-2.1h2.1v-7.4c0-.9.6-1.6,1.8-2.2a11.21,11.21,0,0,1,8.8,0C111.4,59.72,112,60.52,112,61.32Zm-8.3,0v7.4h4.2v-7.4c0-.3-.2-.5-.6-.8a3.65,3.65,0,0,0-2.9,0c-.5.3-.7.5-.7.8Z"/></g></g></g></g></svg>